<svg xmlns="http://www.w3.org/2000/svg" version="1.1" xmlns:xlink="http://www.w3.org/1999/xlink" xmlns:svgjs="http://svgjs.dev/svgjs" width="128" height="128" viewBox="0 0 128 128"><g transform="matrix(0.49282296650717705,0,0,0.49282296650717705,32.49835599274892,12.760752631578946)"><svg viewBox="0 0 58 95" data-background-color="#000000" preserveAspectRatio="xMidYMid meet" height="209" width="128" xmlns="http://www.w3.org/2000/svg" xmlns:xlink="http://www.w3.org/1999/xlink"><g id="tight-bounds" transform="matrix(1,0,0,1,-0.03588223180388184,-0.24049999999999727)"><svg viewBox="0 0 58.071764463607764 95.481" height="95.481" width="58.071764463607764"><g><svg viewBox="0 0 58.071764463607764 95.481" height="95.481" width="58.071764463607764"><g><svg viewBox="0 0 58.071764463607764 95.481" height="95.481" width="58.071764463607764"><g id="textblocktransform"><svg viewBox="0 0 58.071764463607764 95.481" height="95.481" width="58.071764463607764" id="textblock"><g><svg viewBox="0 0 58.071764463607764 95.481" height="95.481" width="58.071764463607764"><g><svg viewBox="0 0 58.071764463607764 95.481" height="95.481" width="58.071764463607764"><g><svg xmlns="http://www.w3.org/2000/svg" xmlns:xlink="http://www.w3.org/1999/xlink" version="1.1" x="0" y="0" viewBox="21.51574074074074 5 54.76103049254172 90.0375251338375" style="enable-background:new 0 0 100 100;" xml:space="preserve" height="95.481" width="58.071764463607764" class="icon-icon-0" data-fill-palette-color="accent" id="icon-0"></svg></g></svg></g></svg></g></svg></g></svg></g></svg></g><defs></defs><mask id="72886acc-0b7f-4655-b2a0-0471e0266226"><g id="SvgjsG8444"><svg viewBox="0 0 58.071764463607764 95.481" height="95.481" width="58.071764463607764"><g><svg viewBox="0 0 58.071764463607764 95.481" height="95.481" width="58.071764463607764"><g><svg viewBox="0 0 58.071764463607764 95.481" height="95.481" width="58.071764463607764"><g id="SvgjsG8443"><svg viewBox="0 0 58.071764463607764 95.481" height="95.481" width="58.071764463607764" id="SvgjsSvg8442"><g><svg viewBox="0 0 58.071764463607764 95.481" height="95.481" width="58.071764463607764"><g><svg viewBox="0 0 58.071764463607764 95.481" height="95.481" width="58.071764463607764"><g><svg xmlns="http://www.w3.org/2000/svg" xmlns:xlink="http://www.w3.org/1999/xlink" version="1.1" x="0" y="0" viewBox="21.51574074074074 5 54.76103049254172 90.0375251338375" style="enable-background:new 0 0 100 100;" xml:space="preserve" height="95.481" width="58.071764463607764" class="icon-icon-0" data-fill-palette-color="accent" id="SvgjsSvg8441"><path d="M49.1 5S11.9 62.5 23.9 81.1C36 99.6 62.5 99.8 74 81 85.6 62.3 49.1 5 49.1 5M25.7 69.4S23.7 51.5 45.6 20.1C45.6 20.1 28.8 60.8 34.1 73.5 26.6 78.7 25.7 69.4 25.7 69.4M72.7 73.8C69.5 86.5 60.1 89.5 57 90.7S43.9 93.1 35.6 87.6C35.6 87.6 51.6 91.6 58.7 83.3S66 64.7 66 64.7 68.2 52.2 51.3 15.7C51.2 15.6 76 60.7 72.7 73.8" fill="white"></path></svg></g></svg></g></svg></g></svg></g></svg></g></svg></g><defs><mask></mask></defs></svg><rect width="58.071764463607764" height="95.481" fill="black" stroke="none" visibility="hidden"></rect></g></mask><linearGradient x1="0" x2="1" y1="0.5" y2="0.5" id="57949171-7f56-478a-b721-797ecf6ebf99"><stop stop-color="#fff72e" offset="0"></stop><stop stop-color="#deae29" offset="1"></stop></linearGradient><rect width="58.071764463607764" height="95.481" fill="#000000" mask="url(#72886acc-0b7f-4655-b2a0-0471e0266226)" data-fill-palette-color="accent"></rect></svg><rect width="58.071764463607764" height="95.481" fill="none" stroke="none" visibility="hidden"></rect></g></svg></g></svg>