<svg xmlns="http://www.w3.org/2000/svg" version="1.1" xmlns:xlink="http://www.w3.org/1999/xlink" xmlns:svgjs="http://svgjs.dev/svgjs" width="1500" height="515" viewBox="0 0 1500 515"><g transform="matrix(1,0,0,1,-0.9090909090909918,-0.010315314576928358)"><svg viewBox="0 0 396 136" data-background-color="#000000" preserveAspectRatio="xMidYMid meet" height="515" width="1500" xmlns="http://www.w3.org/2000/svg" xmlns:xlink="http://www.w3.org/1999/xlink"><g id="tight-bounds" transform="matrix(1,0,0,1,0.2400000000000091,0.0027240442377944873)"><svg viewBox="0 0 395.52 135.9945519115244" height="135.9945519115244" width="395.52"><g><svg viewBox="0 0 741.7110937102107 255.0279830019387" height="135.9945519115244" width="395.52"><g transform="matrix(1,0,0,1,346.1910937102107,13.02498431660753)"><svg viewBox="0 0 395.52 228.97801436872365" height="228.97801436872365" width="395.52"><g id="textblocktransform"><svg viewBox="0 0 395.52 228.97801436872365" height="228.97801436872365" width="395.52" id="textblock"><g><svg viewBox="0 0 395.52 228.97801436872365" height="228.97801436872365" width="395.52"><g transform="matrix(1,0,0,1,0,0)"><svg width="395.52" viewBox="-2.55 -40.2 78.12516853532112 45.65" height="228.97801436872365" data-palette-color="url(#06c8e085-0315-4c52-abfd-bab1d5b36979)"><g transform="matrix(1,0,0,1,0,0)"><g><svg width="12.75559853532113" viewBox="-0.8399999999999999 -40.36 95.94 44.36" height="5.825852770195966" data-palette-color="url(#06c8e085-0315-4c52-abfd-bab1d5b36979)" id="scriptelement" x="56.17779926766056" y="-11.932496385097984"></svg></g></g></svg></g></svg></g></svg></g></svg></g><g><svg viewBox="0 0 255.0279830019387 255.0279830019387" height="255.0279830019387" width="255.0279830019387"><g><svg></svg></g><g id="icon-0"><svg viewBox="0 0 255.0279830019387 255.0279830019387" height="255.0279830019387" width="255.0279830019387"><g></g><g transform="matrix(1,0,0,1,86.20762215400215,59.59848233662542)"><svg viewBox="0 0 82.6127386939344 135.83101832868786" height="135.83101832868786" width="82.6127386939344"><g><svg xmlns="http://www.w3.org/2000/svg" xmlns:xlink="http://www.w3.org/1999/xlink" version="1.1" x="0" y="0" viewBox="21.51574074074074 5 54.76103049254172 90.0375251338375" style="enable-background:new 0 0 100 100;" xml:space="preserve" height="135.83101832868786" width="82.6127386939344" class="icon-dxe-0" data-fill-palette-color="quaternary" id="dxe-0"><path d="M49.1 5S11.9 62.5 23.9 81.1C36 99.6 62.5 99.8 74 81 85.6 62.3 49.1 5 49.1 5M25.7 69.4S23.7 51.5 45.6 20.1C45.6 20.1 28.8 60.8 34.1 73.5 26.6 78.7 25.7 69.4 25.7 69.4M72.7 73.8C69.5 86.5 60.1 89.5 57 90.7S43.9 93.1 35.6 87.6C35.6 87.6 51.6 91.6 58.7 83.3S66 64.7 66 64.7 68.2 52.2 51.3 15.7C51.2 15.6 76 60.7 72.7 73.8" fill="#000000" data-fill-palette-color="quaternary"></path></svg></g></svg></g></svg></g></svg></g></svg></g><defs></defs><mask id="382e04ab-598e-4b17-a4c2-0d6c8ea83423"><g id="SvgjsG2891"><svg viewBox="0 0 395.52 135.9945519115244" height="135.9945519115244" width="395.52"><g><svg viewBox="0 0 741.7110937102107 255.0279830019387" height="135.9945519115244" width="395.52"><g transform="matrix(1,0,0,1,346.1910937102107,13.02498431660753)"><svg viewBox="0 0 395.52 228.97801436872365" height="228.97801436872365" width="395.52"><g id="SvgjsG2890"><svg viewBox="0 0 395.52 228.97801436872365" height="228.97801436872365" width="395.52" id="SvgjsSvg2889"><g><svg viewBox="0 0 395.52 228.97801436872365" height="228.97801436872365" width="395.52"><g transform="matrix(1,0,0,1,0,0)"><svg width="395.52" viewBox="-2.55 -40.2 78.12516853532112 45.65" height="228.97801436872365" data-palette-color="url(#06c8e085-0315-4c52-abfd-bab1d5b36979)"><g transform="matrix(1,0,0,1,0,0)"><g><svg width="12.75559853532113" viewBox="-0.8399999999999999 -40.36 95.94 44.36" height="5.825852770195966" data-palette-color="url(#06c8e085-0315-4c52-abfd-bab1d5b36979)" id="SvgjsSvg2888" x="56.17779926766056" y="-11.932496385097984"><path d="M26.44 0L3.16 0 3.16-36.36 10.85-36.36 10.85-6.34 26.44-6.34 26.44 0ZM36.75-30.02L25.62-30.02 25.62-36.36 55.48-36.36 55.48-30.02 44.35-30.02 44.35 0 36.75 0 36.75-30.02ZM73.31 0L73.31 0 60.42 0 60.42-36.36 73.41-36.36Q78.9-36.36 82.86-34.19 86.82-32.01 88.96-27.95 91.1-23.88 91.1-18.22L91.1-18.22Q91.1-12.54 88.96-8.45 86.82-4.37 82.83-2.18 78.85 0 73.31 0ZM68.11-29.78L68.11-6.59 72.99-6.59Q76.4-6.59 78.73-7.8 81.07-9.02 82.25-11.59 83.43-14.15 83.43-18.22L83.43-18.22Q83.43-22.25 82.25-24.8 81.07-27.36 78.74-28.57 76.42-29.78 73.01-29.78L73.01-29.78 68.11-29.78Z" opacity="1" transform="matrix(1,0,0,1,0,0)" fill="white" class="undefined-123" id="SvgjsPath2887"></path></svg></g></g><path d="M53.536-9.02C53.536-14.001 57.574-18.039 62.556-18.039 67.537-18.039 71.575-14.001 71.575-9.02 71.575-4.038 67.537 0 62.556 0 57.574 0 53.536-4.038 53.536-9.02ZM62.556-0.4C67.316-0.4 71.175-4.259 71.175-9.02 71.175-13.78 67.316-17.639 62.556-17.639 57.795-17.639 53.936-13.78 53.936-9.02 53.936-4.259 57.795-0.4 62.556-0.4Z" fill="white" id="SvgjsPath2886"></path><path d="M21.05-30.1Q23.2-26.85 24.15-22.6L24.15-22.6 24.1-22.65Q24.5-21.45 24.6-19.3L24.6-19.3 24.45-16.45Q24.35-12.2 23.9-10L23.9-10Q22.85-6.95 21.18-4.25 19.5-1.55 17.25 1.25L17.25 1.25Q12.45 1.4 7 1.4L7 1.4Q5.7 1.45 3.35 1.45L3.35 1.45 3.2 0.4 2.35 0.45Q1.45-6.1 1.45-16.3L1.45-16.3Q1.45-20.55 1.5-22.7L1.5-22.7 1.55-29.5Q1.55-32.75 1.5-34.35L1.5-34.35Q1.5-34.45 1.55-34.5L1.55-34.5Q1.65-34.75 1.9-35L1.9-35Q3.2-35.35 4.53-35.48 5.85-35.6 7.65-35.6L7.65-35.6Q9.2-35.6 10-35.55L10-35.55 12.3-35.5Q13.6-35.5 14.25-35.55L14.25-35.55Q16.25-34.95 18.2-33.38 20.15-31.8 21.1-30.1L21.1-30.1 21.05-30.1ZM14.2-35.05L12.75-35Q11.15-35 10.3-35.05L10.3-35.05 7.8-35.1Q4.35-35.1 2.15-34.55L2.15-34.55 2-34.35Q2.05-32.75 2.05-29.55L2.05-29.55 2-22.75Q1.95-20.55 1.95-16.1L1.95-16.1Q1.95-11.1 2.13-7.3 2.3-3.5 2.8-0.05L2.8-0.05 2.85-0.1Q11.6-0.1 16-0.25L16-0.25Q18.3-3.1 19.88-5.6 21.45-8.1 22.35-10.85L22.35-10.85 22.4-10.95Q22.9-13.6 23-18.1L23-18.1 23.1-20.35Q22.95-23.05 22.05-25.8 21.15-28.55 19.65-30.85L19.65-30.85Q18.75-32.35 17.28-33.5 15.8-34.65 14.2-35.05L14.2-35.05ZM12.7-10.8L12.6-10.8Q11.75-10.65 10.85-10.65L10.85-10.65Q9.7-10.65 9.2-11.1L9.2-11.1Q9.1-13.4 9.1-14.65L9.1-14.65 9.15-18Q9.2-19.05 9.2-21L9.2-21Q9.2-22.15 9.1-24.05L9.1-24.05 9.1-24.25 9.25-24.25Q10.15-24.4 11.15-24.4L11.15-24.4Q14.15-24.4 15.3-22.23 16.45-20.05 16.45-17.15L16.45-17.15Q16.45-14.9 15.05-12.7L15.05-12.7Q14.55-11.95 13.9-11.38 13.25-10.8 12.7-10.8L12.7-10.8ZM14.65-12.95Q15.95-14.9 15.95-17.15L15.95-17.15Q15.95-18.25 15.55-19.83 15.15-21.4 14.45-22.55L14.45-22.55 13.95-22.8Q12.75-22.9 12.15-22.9L12.15-22.9Q11.7-22.9 10.6-22.8L10.6-22.8Q10.7-20.9 10.7-19.65L10.7-19.65 10.65-15.8Q10.55-13.2 10.55-11.95L10.55-11.95 10.6-11.15 10.85-11.15Q11.4-11.15 11.9-11.23 12.4-11.3 12.65-11.3L12.65-11.3 12.75-11.25Q12.9-11.25 13.3-11.55L13.3-11.55 13.25-11.55Q14-12 14.65-13L14.65-13 14.65-12.95ZM49.8-23.5Q49.8-20.3 48.05-17.53 46.3-14.75 43.42-13.13 40.55-11.5 37.4-11.5L37.4-11.5Q36.55-11.5 36.15-11.55L36.15-11.55 36.15-9.45Q36.15-4.65 36.3 0.95L36.3 0.95Q35.8 0.95 34.9 1.1L34.9 1.1Q34.55 1.15 33.37 1.28 32.2 1.4 31.15 1.4L31.15 1.4Q28.9 1.4 26.8 1.15L26.8 1.15Q26.8 0.45 26.6 0.3 26.4 0.15 25.8 0.15L25.8 0.15Q25.6-4.7 25.6-16.95L25.6-16.95 25.6-23Q25.6-31.4 25.45-35.15L25.45-35.15Q29.25-36.2 33.25-36.2L33.25-36.2Q37.4-36.2 41.07-34.83 44.75-33.45 47.15-30.6 49.55-27.75 49.8-23.55L49.8-23.55 49.8-23.5ZM48.3-24.55Q48-30.35 43.65-33.02 39.3-35.7 33.2-35.7L33.2-35.7Q29.65-35.7 25.95-34.75L25.95-34.75Q26.15-29.15 26.15-17L26.15-17 26.15-8.2Q26.15-4 26.3-0.3L26.3-0.3Q27.65-0.1 30.15-0.1L30.15-0.1Q33.45-0.1 34.65-0.5L34.65-0.5 34.8-0.6Q34.65-5.45 34.65-9.8L34.65-9.8 34.65-11.75Q34.65-12.7 34.6-13.15L34.6-13.15Q35.5-13 36.4-13L36.4-13Q39.2-13 41.97-14.45 44.75-15.9 46.52-18.4 48.3-20.9 48.3-23.8L48.3-23.8 48.3-24.55ZM41.1-23.75Q41.1-21.55 39.42-20.95 37.75-20.35 34.95-20.3L34.95-20.3 33.85-20.25 33.7-20.25Q33.3-21.5 33.3-24.35L33.3-24.35Q33.3-26.7 33.25-27.75L33.25-27.75Q33.55-28.05 35.35-28.05L35.35-28.05Q37.85-28.05 39.55-26.65L39.55-26.65Q40.3-26.2 40.7-25.43 41.1-24.65 41.1-23.75L41.1-23.75ZM36.35-26.55Q35.4-26.55 34.75-26.35L34.75-26.35Q34.8-25.6 34.8-24.2L34.8-24.2 34.8-22.75 34.8-21.9Q34.8-21.15 34.9-20.8L34.9-20.8 35.15-20.8Q37.55-20.8 39.07-21.38 40.6-21.95 40.6-23.8L40.6-23.8Q40.6-25.25 39.3-25.9 38-26.55 36.35-26.55L36.35-26.55Z" opacity="1" transform="matrix(1,0,0,1,0,0)" fill="white" class="wordmark-text-0" id="SvgjsPath2885"></path></svg></g></svg></g></svg></g></svg></g><g><svg viewBox="0 0 255.0279830019387 255.0279830019387" height="255.0279830019387" width="255.0279830019387"><g><svg></svg></g><g id="SvgjsG2884"><svg viewBox="0 0 255.0279830019387 255.0279830019387" height="255.0279830019387" width="255.0279830019387"><g><path d="M0 127.514c0-70.424 57.09-127.514 127.514-127.514 70.424 0 127.514 57.09 127.514 127.514 0 70.424-57.09 127.514-127.514 127.514-70.424 0-127.514-57.09-127.514-127.514zM127.514 237.616c60.808 0 110.102-49.294 110.102-110.102 0-60.808-49.294-110.102-110.102-110.102-60.808 0-110.102 49.294-110.102 110.102 0 60.808 49.294 110.102 110.102 110.102z" fill="black" stroke="transparent"></path><ellipse rx="126.23885158595967" ry="126.23885158595967" cx="127.51399150096935" cy="127.51399150096935" fill="black" stroke="transparent" stroke-width="0" fill-opacity="1"></ellipse></g><g transform="matrix(1,0,0,1,86.20762215400215,59.59848233662542)"><svg viewBox="0 0 82.6127386939344 135.83101832868786" height="135.83101832868786" width="82.6127386939344"><g><svg xmlns="http://www.w3.org/2000/svg" xmlns:xlink="http://www.w3.org/1999/xlink" version="1.1" x="0" y="0" viewBox="21.51574074074074 5 54.76103049254172 90.0375251338375" style="enable-background:new 0 0 100 100;" xml:space="preserve" height="135.83101832868786" width="82.6127386939344" class="icon-dxe-0" data-fill-palette-color="quaternary" id="SvgjsSvg2883"><path d="M49.1 5S11.9 62.5 23.9 81.1C36 99.6 62.5 99.8 74 81 85.6 62.3 49.1 5 49.1 5M25.7 69.4S23.7 51.5 45.6 20.1C45.6 20.1 28.8 60.8 34.1 73.5 26.6 78.7 25.7 69.4 25.7 69.4M72.7 73.8C69.5 86.5 60.1 89.5 57 90.7S43.9 93.1 35.6 87.6C35.6 87.6 51.6 91.6 58.7 83.3S66 64.7 66 64.7 68.2 52.2 51.3 15.7C51.2 15.6 76 60.7 72.7 73.8" fill="black"></path></svg></g></svg></g></svg></g></svg></g></svg></g><defs><mask></mask></defs></svg><rect width="395.52" height="135.9945519115244" fill="black" stroke="none" visibility="hidden"></rect></g></mask><linearGradient x1="0" x2="1" y1="0.5" y2="0.5" id="06c8e085-0315-4c52-abfd-bab1d5b36979"><stop stop-color="#fff72e" offset="0"></stop><stop stop-color="#deae29" offset="1"></stop></linearGradient><rect width="395.52" height="135.9945519115244" fill="url(#06c8e085-0315-4c52-abfd-bab1d5b36979)" mask="url(#382e04ab-598e-4b17-a4c2-0d6c8ea83423)" data-fill-palette-color="primary"></rect><mask id="16a96276-0e56-496d-946e-a295dc3ccc3f"><g id="SvgjsG2922"><svg viewBox="0 0 395.52 135.9945519115244" height="135.9945519115244" width="395.52"><g><svg viewBox="0 0 741.7110937102107 255.0279830019387" height="135.9945519115244" width="395.52"><g transform="matrix(1,0,0,1,346.1910937102107,13.02498431660753)"><svg viewBox="0 0 395.52 228.97801436872365" height="228.97801436872365" width="395.52"><g id="SvgjsG2921"><svg viewBox="0 0 395.52 228.97801436872365" height="228.97801436872365" width="395.52" id="SvgjsSvg2920"><g><svg viewBox="0 0 395.52 228.97801436872365" height="228.97801436872365" width="395.52"><g transform="matrix(1,0,0,1,0,0)"><svg width="395.52" viewBox="-2.55 -40.2 78.12516853532112 45.65" height="228.97801436872365" data-palette-color="url(#06c8e085-0315-4c52-abfd-bab1d5b36979)"><g transform="matrix(1,0,0,1,0,0)"><g><svg width="12.75559853532113" viewBox="-0.8399999999999999 -40.36 95.94 44.36" height="5.825852770195966" data-palette-color="url(#06c8e085-0315-4c52-abfd-bab1d5b36979)" id="SvgjsSvg2919" x="56.17779926766056" y="-11.932496385097984"></svg></g></g></svg></g></svg></g></svg></g></svg></g><g><svg viewBox="0 0 255.0279830019387 255.0279830019387" height="255.0279830019387" width="255.0279830019387"><g><svg></svg></g><g id="SvgjsG2918"><svg viewBox="0 0 255.0279830019387 255.0279830019387" height="255.0279830019387" width="255.0279830019387"><g><path d="M0 127.514c0-70.424 57.09-127.514 127.514-127.514 70.424 0 127.514 57.09 127.514 127.514 0 70.424-57.09 127.514-127.514 127.514-70.424 0-127.514-57.09-127.514-127.514zM127.514 237.616c60.808 0 110.102-49.294 110.102-110.102 0-60.808-49.294-110.102-110.102-110.102-60.808 0-110.102 49.294-110.102 110.102 0 60.808 49.294 110.102 110.102 110.102z" fill="white" stroke="transparent"></path><ellipse rx="126.23885158595967" ry="126.23885158595967" cx="127.51399150096935" cy="127.51399150096935" fill="white" stroke="transparent" stroke-width="0" fill-opacity="1"></ellipse></g><g transform="matrix(1,0,0,1,86.20762215400215,59.59848233662542)"><svg viewBox="0 0 82.6127386939344 135.83101832868786" height="135.83101832868786" width="82.6127386939344"><g><svg xmlns="http://www.w3.org/2000/svg" xmlns:xlink="http://www.w3.org/1999/xlink" version="1.1" x="0" y="0" viewBox="21.51574074074074 5 54.76103049254172 90.0375251338375" style="enable-background:new 0 0 100 100;" xml:space="preserve" height="135.83101832868786" width="82.6127386939344" class="icon-dxe-0" data-fill-palette-color="quaternary" id="SvgjsSvg2917"><path d="M49.1 5S11.9 62.5 23.9 81.1C36 99.6 62.5 99.8 74 81 85.6 62.3 49.1 5 49.1 5M25.7 69.4S23.7 51.5 45.6 20.1C45.6 20.1 28.8 60.8 34.1 73.5 26.6 78.7 25.7 69.4 25.7 69.4M72.7 73.8C69.5 86.5 60.1 89.5 57 90.7S43.9 93.1 35.6 87.6C35.6 87.6 51.6 91.6 58.7 83.3S66 64.7 66 64.7 68.2 52.2 51.3 15.7C51.2 15.6 76 60.7 72.7 73.8" fill="black"></path></svg></g></svg></g></svg></g></svg></g></svg></g><defs><mask></mask></defs><mask><g id="SvgjsG2916"><svg viewBox="0 0 395.52 135.9945519115244" height="135.9945519115244" width="395.52"><g><svg viewBox="0 0 741.7110937102107 255.0279830019387" height="135.9945519115244" width="395.52"><g transform="matrix(1,0,0,1,346.1910937102107,13.02498431660753)"><svg viewBox="0 0 395.52 228.97801436872365" height="228.97801436872365" width="395.52"><g id="SvgjsG2915"><svg viewBox="0 0 395.52 228.97801436872365" height="228.97801436872365" width="395.52" id="SvgjsSvg2914"><g><svg viewBox="0 0 395.52 228.97801436872365" height="228.97801436872365" width="395.52"><g transform="matrix(1,0,0,1,0,0)"><svg width="395.52" viewBox="-2.55 -40.2 78.12516853532112 45.65" height="228.97801436872365" data-palette-color="url(#06c8e085-0315-4c52-abfd-bab1d5b36979)"><g transform="matrix(1,0,0,1,0,0)"><g><svg width="12.75559853532113" viewBox="-0.8399999999999999 -40.36 95.94 44.36" height="5.825852770195966" data-palette-color="url(#06c8e085-0315-4c52-abfd-bab1d5b36979)" id="SvgjsSvg2913" x="56.17779926766056" y="-11.932496385097984"><path d="M26.44 0L3.16 0 3.16-36.36 10.85-36.36 10.85-6.34 26.44-6.34 26.44 0ZM36.75-30.02L25.62-30.02 25.62-36.36 55.48-36.36 55.48-30.02 44.35-30.02 44.35 0 36.75 0 36.75-30.02ZM73.31 0L73.31 0 60.42 0 60.42-36.36 73.41-36.36Q78.9-36.36 82.86-34.19 86.82-32.01 88.96-27.95 91.1-23.88 91.1-18.22L91.1-18.22Q91.1-12.54 88.96-8.45 86.82-4.37 82.83-2.18 78.85 0 73.31 0ZM68.11-29.78L68.11-6.59 72.99-6.59Q76.4-6.59 78.73-7.8 81.07-9.02 82.25-11.59 83.43-14.15 83.43-18.22L83.43-18.22Q83.43-22.25 82.25-24.8 81.07-27.36 78.74-28.57 76.42-29.78 73.01-29.78L73.01-29.78 68.11-29.78Z" opacity="1" transform="matrix(1,0,0,1,0,0)" fill="black" class="undefined-123" id="SvgjsPath2912"></path></svg></g></g><path d="M53.536-9.02C53.536-14.001 57.574-18.039 62.556-18.039 67.537-18.039 71.575-14.001 71.575-9.02 71.575-4.038 67.537 0 62.556 0 57.574 0 53.536-4.038 53.536-9.02ZM62.556-0.4C67.316-0.4 71.175-4.259 71.175-9.02 71.175-13.78 67.316-17.639 62.556-17.639 57.795-17.639 53.936-13.78 53.936-9.02 53.936-4.259 57.795-0.4 62.556-0.4Z" fill="black" id="SvgjsPath2911"></path><path d="M21.05-30.1Q23.2-26.85 24.15-22.6L24.15-22.6 24.1-22.65Q24.5-21.45 24.6-19.3L24.6-19.3 24.45-16.45Q24.35-12.2 23.9-10L23.9-10Q22.85-6.95 21.18-4.25 19.5-1.55 17.25 1.25L17.25 1.25Q12.45 1.4 7 1.4L7 1.4Q5.7 1.45 3.35 1.45L3.35 1.45 3.2 0.4 2.35 0.45Q1.45-6.1 1.45-16.3L1.45-16.3Q1.45-20.55 1.5-22.7L1.5-22.7 1.55-29.5Q1.55-32.75 1.5-34.35L1.5-34.35Q1.5-34.45 1.55-34.5L1.55-34.5Q1.65-34.75 1.9-35L1.9-35Q3.2-35.35 4.53-35.48 5.85-35.6 7.65-35.6L7.65-35.6Q9.2-35.6 10-35.55L10-35.55 12.3-35.5Q13.6-35.5 14.25-35.55L14.25-35.55Q16.25-34.95 18.2-33.38 20.15-31.8 21.1-30.1L21.1-30.1 21.05-30.1ZM14.2-35.05L12.75-35Q11.15-35 10.3-35.05L10.3-35.05 7.8-35.1Q4.35-35.1 2.15-34.55L2.15-34.55 2-34.35Q2.05-32.75 2.05-29.55L2.05-29.55 2-22.75Q1.95-20.55 1.95-16.1L1.95-16.1Q1.95-11.1 2.13-7.3 2.3-3.5 2.8-0.05L2.8-0.05 2.85-0.1Q11.6-0.1 16-0.25L16-0.25Q18.3-3.1 19.88-5.6 21.45-8.1 22.35-10.85L22.35-10.85 22.4-10.95Q22.9-13.6 23-18.1L23-18.1 23.1-20.35Q22.95-23.05 22.05-25.8 21.15-28.55 19.65-30.85L19.65-30.85Q18.75-32.35 17.28-33.5 15.8-34.65 14.2-35.05L14.2-35.05ZM12.7-10.8L12.6-10.8Q11.75-10.65 10.85-10.65L10.85-10.65Q9.7-10.65 9.2-11.1L9.2-11.1Q9.1-13.4 9.1-14.65L9.1-14.65 9.15-18Q9.2-19.05 9.2-21L9.2-21Q9.2-22.15 9.1-24.05L9.1-24.05 9.1-24.25 9.25-24.25Q10.15-24.4 11.15-24.4L11.15-24.4Q14.15-24.4 15.3-22.23 16.45-20.05 16.45-17.15L16.45-17.15Q16.45-14.9 15.05-12.7L15.05-12.7Q14.55-11.95 13.9-11.38 13.25-10.8 12.7-10.8L12.7-10.8ZM14.65-12.95Q15.95-14.9 15.95-17.15L15.95-17.15Q15.95-18.25 15.55-19.83 15.15-21.4 14.45-22.55L14.45-22.55 13.95-22.8Q12.75-22.9 12.15-22.9L12.15-22.9Q11.7-22.9 10.6-22.8L10.6-22.8Q10.7-20.9 10.7-19.65L10.7-19.65 10.65-15.8Q10.55-13.2 10.55-11.95L10.55-11.95 10.6-11.15 10.85-11.15Q11.4-11.15 11.9-11.23 12.4-11.3 12.65-11.3L12.65-11.3 12.75-11.25Q12.9-11.25 13.3-11.55L13.3-11.55 13.25-11.55Q14-12 14.65-13L14.65-13 14.65-12.95ZM49.8-23.5Q49.8-20.3 48.05-17.53 46.3-14.75 43.42-13.13 40.55-11.5 37.4-11.5L37.4-11.5Q36.55-11.5 36.15-11.55L36.15-11.55 36.15-9.45Q36.15-4.65 36.3 0.95L36.3 0.95Q35.8 0.95 34.9 1.1L34.9 1.1Q34.55 1.15 33.37 1.28 32.2 1.4 31.15 1.4L31.15 1.4Q28.9 1.4 26.8 1.15L26.8 1.15Q26.8 0.45 26.6 0.3 26.4 0.15 25.8 0.15L25.8 0.15Q25.6-4.7 25.6-16.95L25.6-16.95 25.6-23Q25.6-31.4 25.45-35.15L25.45-35.15Q29.25-36.2 33.25-36.2L33.25-36.2Q37.4-36.2 41.07-34.83 44.75-33.45 47.15-30.6 49.55-27.75 49.8-23.55L49.8-23.55 49.8-23.5ZM48.3-24.55Q48-30.35 43.65-33.02 39.3-35.7 33.2-35.7L33.2-35.7Q29.65-35.7 25.95-34.75L25.95-34.75Q26.15-29.15 26.15-17L26.15-17 26.15-8.2Q26.15-4 26.3-0.3L26.3-0.3Q27.65-0.1 30.15-0.1L30.15-0.1Q33.45-0.1 34.65-0.5L34.65-0.5 34.8-0.6Q34.65-5.45 34.65-9.8L34.65-9.8 34.65-11.75Q34.65-12.7 34.6-13.15L34.6-13.15Q35.5-13 36.4-13L36.4-13Q39.2-13 41.97-14.45 44.75-15.9 46.52-18.4 48.3-20.9 48.3-23.8L48.3-23.8 48.3-24.55ZM41.1-23.75Q41.1-21.55 39.42-20.95 37.75-20.35 34.95-20.3L34.95-20.3 33.85-20.25 33.7-20.25Q33.3-21.5 33.3-24.35L33.3-24.35Q33.3-26.7 33.25-27.75L33.25-27.75Q33.55-28.05 35.35-28.05L35.35-28.05Q37.85-28.05 39.55-26.65L39.55-26.65Q40.3-26.2 40.7-25.43 41.1-24.65 41.1-23.75L41.1-23.75ZM36.35-26.55Q35.4-26.55 34.75-26.35L34.75-26.35Q34.8-25.6 34.8-24.2L34.8-24.2 34.8-22.75 34.8-21.9Q34.8-21.15 34.9-20.8L34.9-20.8 35.15-20.8Q37.55-20.8 39.07-21.38 40.6-21.95 40.6-23.8L40.6-23.8Q40.6-25.25 39.3-25.9 38-26.55 36.35-26.55L36.35-26.55Z" opacity="1" transform="matrix(1,0,0,1,0,0)" fill="black" class="wordmark-text-0" id="SvgjsPath2910"></path></svg></g></svg></g></svg></g></svg></g><g><svg viewBox="0 0 255.0279830019387 255.0279830019387" height="255.0279830019387" width="255.0279830019387"><g><svg></svg></g><g id="SvgjsG2909"><svg viewBox="0 0 255.0279830019387 255.0279830019387" height="255.0279830019387" width="255.0279830019387"><g><path d="M0 127.514c0-70.424 57.09-127.514 127.514-127.514 70.424 0 127.514 57.09 127.514 127.514 0 70.424-57.09 127.514-127.514 127.514-70.424 0-127.514-57.09-127.514-127.514zM127.514 237.616c60.808 0 110.102-49.294 110.102-110.102 0-60.808-49.294-110.102-110.102-110.102-60.808 0-110.102 49.294-110.102 110.102 0 60.808 49.294 110.102 110.102 110.102z" fill="black" stroke="transparent"></path><ellipse rx="126.23885158595967" ry="126.23885158595967" cx="127.51399150096935" cy="127.51399150096935" fill="black" stroke="transparent" stroke-width="0" fill-opacity="1"></ellipse></g><g transform="matrix(1,0,0,1,86.20762215400215,59.59848233662542)"><svg viewBox="0 0 82.6127386939344 135.83101832868786" height="135.83101832868786" width="82.6127386939344"><g><svg xmlns="http://www.w3.org/2000/svg" xmlns:xlink="http://www.w3.org/1999/xlink" version="1.1" x="0" y="0" viewBox="21.51574074074074 5 54.76103049254172 90.0375251338375" style="enable-background:new 0 0 100 100;" xml:space="preserve" height="135.83101832868786" width="82.6127386939344" class="icon-dxe-0" data-fill-palette-color="quaternary" id="SvgjsSvg2908"><path d="M49.1 5S11.9 62.5 23.9 81.1C36 99.6 62.5 99.8 74 81 85.6 62.3 49.1 5 49.1 5M25.7 69.4S23.7 51.5 45.6 20.1C45.6 20.1 28.8 60.8 34.1 73.5 26.6 78.7 25.7 69.4 25.7 69.4M72.7 73.8C69.5 86.5 60.1 89.5 57 90.7S43.9 93.1 35.6 87.6C35.6 87.6 51.6 91.6 58.7 83.3S66 64.7 66 64.7 68.2 52.2 51.3 15.7C51.2 15.6 76 60.7 72.7 73.8" fill="black"></path></svg></g></svg></g></svg></g></svg></g></svg></g><defs><mask></mask></defs></svg><rect width="395.52" height="135.9945519115244" fill="black" stroke="none" visibility="hidden"></rect></g></mask></svg><rect width="395.52" height="135.9945519115244" fill="black" stroke="none" visibility="hidden"></rect></g></mask><linearGradient x1="0" x2="1" y1="0.5" y2="0.5" id="53b4190b-48b6-4334-998a-9e0bf5c9db75"><stop stop-color="#fff72e" offset="0"></stop><stop stop-color="#deae29" offset="1"></stop></linearGradient><rect width="395.52" height="135.9945519115244" fill="url(#53b4190b-48b6-4334-998a-9e0bf5c9db75)" mask="url(#16a96276-0e56-496d-946e-a295dc3ccc3f)" data-fill-palette-color="accent"></rect></svg><rect width="395.52" height="135.9945519115244" fill="none" stroke="none" visibility="hidden"></rect></g></svg></g></svg>